<svg id="_2" data-name="2" xmlns="http://www.w3.org/2000/svg" viewBox="0 0 359.37 512"><defs><style>.cls-1,.cls-2{fill:red;}.cls-2{stroke:#df5656;stroke-miterlimit:10;}</style></defs><path class="cls-1" d="M397.75,224.86V251a141.75,141.75,0,0,1-283.5,0v-26.1H79.65V251c0,89.45,66.9,163.29,153.29,174.66V512h46.13V425.62C365.46,414.25,432.32,340.41,432.35,251V224.86Z" transform="translate(-72.98)"/><path class="cls-1" d="M256,340.81A89.92,89.92,0,0,0,345.85,251V89.86a89.85,89.85,0,1,0-179.7,0V251A89.92,89.92,0,0,0,256,340.81ZM200.75,89.86a55.26,55.26,0,0,1,110.51,0V251a55.26,55.26,0,0,1-110.51,0V89.86Z" transform="translate(-72.98)"/><rect class="cls-2" x="-2.95" y="189.37" width="497" height="40" transform="translate(-144.65 268.54) rotate(-51.02)"/></svg>