<svg id="_2" data-name=" 2" xmlns="http://www.w3.org/2000/svg" viewBox="0 0 352.7 512.01"><defs><style>.cls-1{fill:red;}</style></defs><path class="cls-1" d="M318.1,224.87V251a141.75,141.75,0,0,1-283.5,0v-26.1H0V251C0,340.46,66.9,414.3,153.29,425.67V512h46.13V425.63C285.81,414.26,352.67,340.42,352.7,251V224.87Z"/><path class="cls-1" d="M176.35,340.82A89.92,89.92,0,0,0,266.2,251V89.87a89.85,89.85,0,0,0-179.7,0V251A89.92,89.92,0,0,0,176.35,340.82ZM121.1,89.87a55.26,55.26,0,0,1,110.51,0V251a55.26,55.26,0,0,1-110.51,0Z"/></svg>